<svg xmlns="http://www.w3.org/2000/svg" width="48.002" height="48.001" viewBox="0 0 48.002 48.001">
  <g>
    <path d="M42.62,24.821A5.246,5.246,0,0,0,48,19.735c0-.016-.008-.027-.009-.043a.719.719,0,0,0-.04-.2.562.562,0,0,0-.019-.058.681.681,0,0,0-.129-.2l-8.531-9.1V.728A.728.728,0,0,0,38.547,0H9.455a.728.728,0,0,0-.727.728v9.409L.2,19.237a.694.694,0,0,0-.129.2c-.008.019-.012.038-.019.058a.759.759,0,0,0-.041.2c0,.016-.008.027-.008.043a5.246,5.246,0,0,0,5.382,5.086A5.511,5.511,0,0,0,8.727,23.7V47.274A.728.728,0,0,0,9.454,48H38.546a.727.727,0,0,0,.727-.727V35.288l3.369-1.5a.727.727,0,0,0-.059-1.352L39.273,31.3V23.7A5.526,5.526,0,0,0,42.62,24.821ZM45.6,19.007H38.378l-4.716-7.854h4.57Zm-34.273,0,4.71-7.854H20.32l-1.568,7.854Zm7.218,1.455a3.87,3.87,0,0,1-3.848,2.905,3.87,3.87,0,0,1-3.848-2.905ZM21.8,11.153H26.2l.652,3.256.922,4.6H20.235Zm6.048,9.309a4,4,0,0,1-7.7,0Zm-.172-9.309h4.286l4.716,7.854H29.253l-.731-3.65Zm9.481,9.309a4,4,0,0,1-7.7,0ZM10.184,1.456H37.821V9.7H10.184Zm-4.8,21.911a3.872,3.872,0,0,1-3.849-2.905h7.7A3.87,3.87,0,0,1,5.384,23.367Zm-2.976-4.36,7.363-7.854h4.565l-4.71,7.854Zm35.413,27.54H10.184V22.481a5.522,5.522,0,0,0,9.164-.205,5.528,5.528,0,0,0,9.308,0,5.523,5.523,0,0,0,9.164.207V30.8L27.069,27.113a.727.727,0,0,0-.925.924l5.324,15.516a.726.726,0,0,0,.655.49h.032a.728.728,0,0,0,.665-.432l3.024-6.8,1.975-.878V46.547Zm2.542-13.335L35,35.6a.728.728,0,0,0-.368.369l-2.387,5.363L28,28.972Zm-1.59-12.75h7.7a4,4,0,0,1-7.7,0Z" fill="#1a171b"/>
    <path d="M33.183,5.063a.728.728,0,1,0,1.029,0A.753.753,0,0,0,33.183,5.063Z" fill="#1a171b"/>
    <path d="M29.654,4.85a.727.727,0,0,0-.728.727.732.732,0,1,0,.728-.727Z" fill="#1a171b"/>
    <path d="M25.106,5.063a.727.727,0,1,0,1.028,1.029.745.745,0,0,0,.214-.515.728.728,0,0,0-.214-.514A.752.752,0,0,0,25.106,5.063Z" fill="#1a171b"/>
  </g>
</svg>
